# xmcd
#
# Track frame offsets:
#  150
#  22912
#  49758
#  63369
#  84848
#  113353
#  141492
#  175801
#  201445
#  229215
#  258183
#  277695
#  293537
#  315303
#
# Disc length: 4335 seconds
#
# Revision: 0
# Processed by: cddbd v1.5.1PL2 Copyright (c) Steve Scherf et al.
# Submitted via: Collectorz.com_Music_Collector 6.11
#
DISCID=b110ed0e
DTITLE=Bruce Springsteen - Nebraska Live - Version 2006
DYEAR=2006
DGENRE=Alt Country
TTITLE0=Nebraska
TTITLE1=Atlantic City
TTITLE2=Mansion On The Hill
TTITLE3=Johnny 99
TTITLE4=Highway Patrolman
TTITLE5=State Trooper
TTITLE6=Used Cars
TTITLE7=Open All Night
TTITLE8=My Father's House
TTITLE9=Reason To Believe
TTITLE10=Shut Out The Light
TTITLE11=Sugarland
TTITLE12=Man At The Top
TTITLE13=Johnny Bye Bye
EXTD=
EXTT0=
EXTT1=
EXTT2=
EXTT3=
EXTT4=
EXTT5=
EXTT6=
EXTT7=
EXTT8=
EXTT9=
EXTT10=
EXTT11=
EXTT12=
EXTT13=
PLAYORDER=
